<svg fill="none" height="100%" width="100%" viewBox="0 0 500 500" xmlns:xlink="http://www.w3.org/1999/xlink" xmlns="http://www.w3.org/2000/svg"><g opacity="0.5" id="i0"><g transform="translate(250,250)"><g transform="scale(0.8,0.8)"><animateTransform repeatCount="indefinite" type="scale" attributeName="transform" dur="1.668s" begin="0s" calcMode="spline" values="0.8 0.8; 0.65 0.65; 0.8 0.8; 1.08 1.08; 0.8 0.8; 0.8 0.8" keyTimes="0; 0.26; 0.7; 0.88; 1; 1" keySplines="0 0 1 1; 0 0 1 1; 0 0 1 1; 0 0 1 1; 0 0 1 1" fill="freeze" /><g transform="translate(-250,-250)"><g id="i1" transform="matrix(1,0,0,1,256.667,250)"><path fill="#f9c3c4" d="M220.232,0C220.232,121.631,121.63,220.232,0,220.232C-121.632,220.232,-220.233,121.631,-220.233,0C-220.233,-121.631,-121.632,-220.232,0,-220.232C121.63,-220.232,220.232,-121.631,220.232,0Z" /></g></g></g></g></g><g opacity="0.35" id="i2"><g transform="translate(250,250)"><g transform="scale(0.8,0.8)"><animateTransform repeatCount="indefinite" type="scale" attributeName="transform" dur="1.668s" begin="0s" calcMode="spline" values="0.8 0.8; 0.65 0.65; 0.8 0.8; 1.08 1.08; 0.8 0.8; 0.8 0.8" keyTimes="0; 0.26; 0.64; 0.84; 1; 1" keySplines="0 0 1 1; 0 0 1 1; 0 0 1 1; 0 0 1 1; 0 0 1 1" fill="freeze" /><g transform="translate(-250,-250)"><g id="i1" transform="matrix(1,0,0,1,256.667,250)"><path fill="#f9c3c4" d="M220.232,0C220.232,121.631,121.63,220.232,0,220.232C-121.632,220.232,-220.233,121.631,-220.233,0C-220.233,-121.631,-121.632,-220.232,0,-220.232C121.63,-220.232,220.232,-121.631,220.232,0Z" /></g></g></g></g></g><g opacity="0.2" id="i3"><g transform="translate(250,250)"><g transform="scale(0.8,0.8)"><animateTransform repeatCount="indefinite" type="scale" attributeName="transform" dur="1.668s" begin="0s" calcMode="spline" values="0.8 0.8; 0.65 0.65; 0.8 0.8; 1.08 1.08; 0.8 0.8; 0.8 0.8" keyTimes="0; 0.26; 0.52; 0.78; 1; 1" keySplines="0 0 1 1; 0 0 1 1; 0 0 1 1; 0 0 1 1; 0 0 1 1" fill="freeze" /><g transform="translate(-250,-250)"><g id="i1" transform="matrix(1,0,0,1,256.667,250)"><path fill="#d86668" d="M220.232,0C220.232,121.631,121.63,220.232,0,220.232C-121.632,220.232,-220.233,121.631,-220.233,0C-220.233,-121.631,-121.632,-220.232,0,-220.232C121.63,-220.232,220.232,-121.631,220.232,0Z" /></g></g></g></g></g><g id="i4"><g transform="translate(250,250)"><g transform="scale(0.8,0.8)"><animateTransform repeatCount="indefinite" type="scale" attributeName="transform" dur="1.668s" begin="0s" calcMode="spline" values="0.8 0.8; 0.65 0.65; 0.8 0.8; 0.8 0.8; 0.8 0.8" keyTimes="0; 0.26; 0.52; 1; 1" keySplines="0 0 1 1; 0 0 1 1; 0 0 1 1; 0 0 1 1" fill="freeze" /><g transform="translate(-250,-250)"><g id="i5" transform="matrix(1,0,0,1,256.667,250)"><path fill="#f01c20" d="M220.232,0C220.232,121.631,121.63,220.232,0,220.232C-121.632,220.232,-220.233,121.631,-220.233,0C-220.233,-121.631,-121.632,-220.232,0,-220.232C121.63,-220.232,220.232,-121.631,220.232,0Z" /></g><g id="i1" transform="matrix(1,0,0,1,260.469,250.744)"><path fill="#feffff" d="M-56.692,-127.961C-60.477,-131.125,-70.443,-139.457,-83.096,-138.28C-90.871,-137.557,-96.099,-133.574,-105.858,-126.14C-114.169,-119.81,-120.993,-114.611,-124.978,-105.503C-128.531,-97.38,-128.159,-89.959,-127.709,-83.955C-125.776,-58.191,-124.81,-45.309,-118.604,-26.595C-102.873,20.846,-72.471,55.862,-69.439,59.293C-29.548,104.443,13.846,120.456,38.909,129.704C57.339,136.504,71.814,139.457,86.253,134.256C100.936,128.967,111.328,116.781,118.423,108.459C122.038,104.22,124.209,100.967,125.404,96.623C128.53,85.25,122.445,74.729,120.547,71.433C107.78,49.255,72.459,36.979,51.655,47.761C43.597,51.937,41.927,57.39,32.838,59.293C23.433,61.263,14.313,57.708,3.096,50.795C-50.546,17.74,-59.453,-34.964,-59.727,-38.734C-59.845,-40.361,-59.423,-41.769,-59.423,-41.77C-58.13,-46.088,-53.401,-48.061,-51.532,-49.053C-46.372,-51.793,-44.234,-57.029,-40.303,-66.656C-33.535,-83.232,-37.626,-112.022,-56.692,-127.961Z" /></g></g></g></g></g></svg>