<svg fill="none" height="100%" width="100%" viewBox="0 0 813 813" xmlns:xlink="http://www.w3.org/1999/xlink" xmlns="http://www.w3.org/2000/svg"><g visibility="hidden" id="i0"><animate repeatCount="indefinite" begin="0s" calcMode="discrete" dur="4.004s" values="hidden; visible; visible; visible" keyTimes="0; 0.208; 0.999999; 1" attributeName="visibility" /><g transform="translate(576.695,485.459)"><g transform="scale(0,1)"><animateTransform repeatCount="indefinite" type="scale" attributeName="transform" dur="4.004s" begin="0s" calcMode="spline" values="0 1; 0 1; 1 1; 1 1; 0 1; 0 1" keyTimes="0; 0.208333; 0.291666; 0.75; 0.816667; 1" keySplines="0 0 1 1; 0.333 0 0.667 1; 0.333 0 0.667 1; 0.333 0 0.667 1; 0 0 1 1" fill="freeze" /><g transform="translate(-14.195,-174.665)"><g id="i1" transform="matrix(1,0,0,1,110.652,216.004)"><path fill="#44c868" d="M109.671,202.724C109.671,202.724,50.434,-123.633,50.434,-123.633C49.843,-126.891,47.823,-129.713,44.927,-131.322C44.927,-131.322,-104.167,-214.247,-104.167,-214.247C-106.103,-215.325,-108.271,-215.754,-110.402,-215.589C-110.402,-215.589,-83.277,134.327,-83.277,134.327C-83.277,134.327,-84.186,134.733,-84.186,134.733C-84.186,134.733,94.247,214.783,94.247,214.783C95.699,215.433,97.242,215.754,98.778,215.754C101.209,215.754,103.619,214.953,105.6,213.402C108.836,210.875,110.403,206.764,109.671,202.724Z" /></g><g id="i2" transform="matrix(1,0,0,1,74.13,73.315)"><path fill="#ffbb24" d="M69.714,4.84C69.714,4.84,-1.91,-34.996,-1.91,-34.996C-1.91,-34.996,-69.714,-19.154,-69.714,-19.154C-69.714,-19.154,-68.866,-8.203,-68.866,-8.203C-68.866,-8.203,-65.517,34.996,-65.517,34.996C-65.517,34.996,69.714,4.84,69.714,4.84Z" /></g><g id="i3" transform="matrix(1,0,0,1,114.825,268.757)"><path fill="#ffbb24" d="M105.498,149.971C105.498,149.971,90.619,67.995,90.619,67.995C90.619,67.995,-106.212,-160.445,-106.212,-160.445C-106.212,-160.445,-100.197,-82.87,-100.197,-82.87C-100.197,-82.87,101.66,160.445,101.66,160.445C104.729,157.901,106.212,153.907,105.498,149.971Z" /></g><g id="i4" transform="matrix(1,0,0,1,107.027,207.452)"><path fill="#1ea4e9" d="M54.059,-115.081C53.468,-118.339,51.447,-121.16,48.552,-122.77C48.552,-122.77,36.815,-129.298,36.815,-129.298C36.815,-129.298,-98.414,-99.142,-98.414,-99.142C-98.414,-99.142,98.414,129.298,98.414,129.298C98.414,129.298,54.059,-115.081,54.059,-115.081Z" /></g></g></g></g></g><g visibility="hidden" id="i5"><animate repeatCount="indefinite" begin="0s" calcMode="discrete" dur="4.004s" values="hidden; visible; visible; visible" keyTimes="0; 0.133; 0.999999; 1" attributeName="visibility" /><g transform="translate(407.605,531.472)"><g transform="scale(0,1)"><animateTransform repeatCount="indefinite" type="scale" attributeName="transform" dur="4.004s" begin="0s" calcMode="spline" values="0 1; 0 1; 1 1; 1 1; 0 1; 0 1" keyTimes="0; 0.133333; 0.216667; 0.816666; 0.875; 1" keySplines="0 0 1 1; 0.333 0 0.667 1; 0.333 0 0.667 1; 0.333 0 0.667 1; 0 0 1 1" fill="freeze" /><g transform="translate(-1.854,-220.519)"><g id="i2" transform="matrix(1,0,0,1,92.187,215.926)"><path fill="#4ce166" d="M64.811,-215.676C63.344,-215.563,61.894,-215.171,60.549,-214.47C60.549,-214.47,-91.937,-135.051,-91.937,-135.051C-91.937,-135.051,-91.937,215.676,-91.937,215.676C-91.937,215.676,-91.936,215.676,-91.936,215.676C-90.397,215.676,-88.851,215.354,-87.404,214.704C-87.404,214.704,91.937,134.247,91.937,134.247C91.937,134.247,64.811,-215.676,64.811,-215.676Z" /></g><g id="i3" transform="matrix(1,0,0,1,85.835,119.865)"><path fill="#ffdb56" d="M85.541,65.863C85.541,65.863,79.12,-16.973,79.12,-16.973C79.12,-16.973,75.331,-65.863,75.331,-65.863C75.331,-65.863,-85.541,4.754,-85.541,4.754C-85.541,4.754,-85.541,60.07,-85.541,60.07C-85.541,60.07,19.542,14.373,19.542,14.373C19.542,14.373,85.541,65.863,85.541,65.863Z" /></g><g id="i4" transform="matrix(1,0,0,1,35.861,379.3)"><path fill="#ffdb56" d="M-31.078,51.328C-31.078,51.328,35.611,21.409,35.611,21.409C35.611,21.409,-35.611,-52.298,-35.611,-52.298C-35.611,-52.298,-35.611,52.298,-35.611,52.298C-35.611,52.298,-35.609,52.298,-35.609,52.298C-34.07,52.298,-32.526,51.979,-31.078,51.328Z" /></g></g></g></g></g><g visibility="hidden" id="i6"><animate repeatCount="indefinite" begin="0s" calcMode="discrete" dur="4.004s" values="hidden; visible; visible; visible" keyTimes="0; 0.067; 0.999999; 1" attributeName="visibility" /><g transform="translate(236,479.344)"><g transform="scale(0,1)"><animateTransform repeatCount="indefinite" type="scale" attributeName="transform" dur="4.004s" begin="0s" calcMode="spline" values="0 1; 0 1; 1 1; 1 1; 0 1; 0 1" keyTimes="0; 0.066667; 0.15; 0.875; 0.925; 1" keySplines="0 0 1 1; 0.333 0 0.667 1; 0.333 0 0.667 1; 0.333 0 0.667 1; 0 0 1 1" fill="freeze" /><g transform="translate(-14.126,-168.531)"><g id="i2" transform="matrix(1,0,0,1,92.19,215.995)"><path fill="#44c868" d="M91.937,-134.981C91.937,-134.981,-60.549,-214.403,-60.549,-214.403C-62.377,-215.356,-64.404,-215.744,-66.4,-215.61C-65.871,-215.642,-65.34,-215.639,-64.812,-215.598C-64.812,-215.598,-91.937,134.318,-91.937,134.318C-91.937,134.318,87.406,214.774,87.406,214.774C88.853,215.422,90.398,215.745,91.937,215.745C91.937,215.745,91.937,-134.981,91.937,-134.981Z" /></g><g id="i3" transform="matrix(1,0,0,1,99.454,260.952)"><path fill="#ffbb24" d="M84.717,-136.193C84.717,-136.193,-79.894,-159.731,-79.894,-159.731C-79.894,-159.731,-84.717,-97.512,-84.717,-97.512C-84.717,-97.512,84.673,159.73,84.673,159.73C84.673,159.73,84.673,66.19,84.673,66.19C84.673,66.19,-16.406,-92.972,-16.406,-92.972C-16.406,-92.972,84.717,-80.877,84.717,-80.877C84.717,-80.877,84.717,-136.193,84.717,-136.193Z" /></g><g id="i4" transform="matrix(1,0,0,1,92.188,297.59)"><path fill="#1ea4e9" d="M91.937,134.15C91.938,134.15,91.938,134.15,91.937,134.15C91.937,134.15,91.937,123.093,91.937,123.093C91.937,123.093,-77.451,-134.149,-77.451,-134.149C-77.451,-134.149,-91.938,52.724,-91.938,52.724C-91.938,52.724,87.404,133.181,87.404,133.181C88.852,133.83,90.397,134.15,91.937,134.15Z" /></g></g></g></g></g><g id="i7"><g transform="translate(62.295,525.268)"><g transform="scale(0,1)"><animateTransform repeatCount="indefinite" type="scale" attributeName="transform" dur="4.004s" begin="0s" calcMode="spline" values="0 1; 1 1; 1 1; 0 1; 0 1" keyTimes="0; 0.083334; 0.925; 0.991667; 1" keySplines="0.333 0 0.667 1; 0.333 0 0.667 1; 0.333 0 0.667 1; 0 0 1 1" fill="freeze" /><g transform="translate(-34.099,-214.472)"><g id="i2" transform="matrix(1,0,0,1,110.653,216.004)"><path fill="#4ce166" d="M110.403,-215.589C108.272,-215.754,106.103,-215.324,104.168,-214.248C104.168,-214.248,-44.929,-131.322,-44.929,-131.322C-47.824,-129.713,-49.844,-126.894,-50.435,-123.635C-50.435,-123.635,-109.67,202.723,-109.67,202.723C-110.403,206.761,-108.836,210.873,-105.601,213.403C-103.617,214.954,-101.209,215.754,-98.779,215.754C-97.243,215.754,-95.699,215.434,-94.248,214.783C-94.248,214.783,83.213,135.169,83.213,135.169C83.213,135.169,110.403,-215.589,110.403,-215.589Z" /></g><g id="i3" transform="matrix(1,0,0,1,121.737,179.404)"><path fill="#ffdb56" d="M-79.47,11.868C-79.47,11.868,-91.503,78.165,-91.503,78.165C-91.503,78.165,86.68,-15.946,86.68,-15.946C86.68,-15.946,90.816,-69.314,90.816,-69.314C90.816,-69.314,91.503,-78.165,91.503,-78.165C91.503,-78.165,-79.47,11.868,-79.47,11.868Z" /></g><g id="i4" transform="matrix(1,0,0,1,105.135,287.26)"><path fill="#a8eefc" d="M104.885,-144.497C104.885,-144.497,103.281,-123.803,103.281,-123.803C103.281,-123.803,-74.902,-29.69,-74.902,-29.69C-74.902,-29.69,-104.152,131.467,-104.152,131.467C-104.885,135.505,-103.318,139.616,-100.083,142.146C-98.099,143.696,-95.691,144.497,-93.261,144.497C-91.725,144.497,-90.18,144.177,-88.73,143.527C-88.73,143.527,88.731,63.912,88.731,63.912C88.731,63.912,104.885,-144.497,104.885,-144.497Z" /></g></g></g></g></g><g opacity="0" id="i8"><animate repeatCount="indefinite" attributeName="opacity" dur="4.004s" begin="0s" fill="freeze" values="0; 0; 1; 1; 0; 0" keyTimes="0; 0.358333; 0.458333; 0.691667; 0.75; 1" keySplines="0 0 1 1; 1 0 0.667 1; 0.167 0 0.667 1; 0.167 0 0.667 1; 0 0 1 1" calcMode="spline" /><g transform="translate(408.242,253.319)"><animateTransform repeatCount="indefinite" type="translate" attributeName="transform" dur="4.004s" begin="0s" calcMode="spline" values="408.242 253.319; 408.242 253.319; 406.711 481.279; 406.711 481.279; 408.242 253.319; 408.242 253.319" keyTimes="0; 0.358333; 0.5; 0.691667; 0.75; 1" keySplines="0 0 1 1; 0.799 0 0.667 1; 0 0 1 1; 0.333 0 0.833 1; 0 0 1 1" fill="freeze" /><g transform="scale(1,1) translate(-156.589,-398.122)"><g id="i3" transform="matrix(1,0,0,1,155.057,199.082)"><path fill="#ff4a4a" fill-rule="evenodd" d="M-0.002,-198.832C-85.361,-198.832,-154.807,-129.443,-154.807,-44.153C-154.807,8.607,-129.758,65.251,-80.355,124.205C-44.07,167.505,-8.279,195.355,-6.773,196.52C-4.779,198.062,-2.389,198.832,0.001,198.832C2.39,198.832,4.78,198.062,6.774,196.52C8.279,195.355,44.071,167.505,80.355,124.205C129.759,65.251,154.807,8.608,154.807,-44.153C154.804,-129.443,85.358,-198.832,-0.002,-198.832ZM57.33,-44.154C57.33,-12.518,31.661,13.129,-0.002,13.129C-31.664,13.129,-57.331,-12.517,-57.331,-44.154C-57.331,-75.791,-31.664,-101.438,-0.002,-101.438C31.661,-101.438,57.33,-75.79,57.33,-44.154Z" /></g><g id="i4" transform="matrix(1,0,0,1,222.477,199.082)"><path fill="#e7343f" d="M-67.42,-198.832C-74.185,-198.832,-80.849,-198.393,-87.388,-197.548C-11.424,-187.73,47.451,-122.684,47.451,-44.153C47.451,8.607,22.403,65.251,-27,124.205C-50.334,152.05,-73.448,173.49,-87.386,185.569C-79.649,192.272,-74.727,196.104,-74.191,196.519C-72.197,198.061,-69.809,198.832,-67.419,198.832C-65.03,198.832,-62.64,198.061,-60.646,196.519C-59.141,195.355,-23.348,167.505,12.937,124.205C62.34,65.251,87.388,8.608,87.388,-44.153C87.385,-129.443,17.94,-198.832,-67.42,-198.832Z" /></g></g></g></g></svg>